<?xml version="1.0" encoding="UTF-8" standalone="no"?>
<svg width="380px" height="144px" viewBox="0 0 380 144" version="1.1" xmlns="http://www.w3.org/2000/svg" xmlns:xlink="http://www.w3.org/1999/xlink" xmlns:sketch="http://www.bohemiancoding.com/sketch/ns">
    <!-- Generator: Sketch Beta 3.3.2 (12041) - http://www.bohemiancoding.com/sketch -->
    <title>Logos/today-banner-black</title>
    <desc>Created with Sketch Beta.</desc>
    <defs>
        <linearGradient x1="50%" y1="0%" x2="50%" y2="100%" id="linearGradient-1">
            <stop stop-color="#F6A01A" offset="0%"></stop>
            <stop stop-color="#F6A11B" offset="100%"></stop>
        </linearGradient>
        <linearGradient x1="50%" y1="0%" x2="50%" y2="100%" id="linearGradient-2">
            <stop stop-color="#44D400" offset="0%"></stop>
            <stop stop-color="#29C102" offset="100%"></stop>
        </linearGradient>
        <linearGradient x1="50%" y1="0%" x2="50%" y2="100%" id="linearGradient-3">
            <stop stop-color="#47A6DA" offset="0%"></stop>
            <stop stop-color="#4C9ECC" offset="100%"></stop>
        </linearGradient>
        <linearGradient x1="50%" y1="0%" x2="50%" y2="100%" id="linearGradient-4">
            <stop stop-color="#FF5D4D" offset="0%"></stop>
            <stop stop-color="#FA403B" offset="100%"></stop>
        </linearGradient>
        <linearGradient x1="50%" y1="0%" x2="50%" y2="100%" id="linearGradient-5">
            <stop stop-color="#FFFFFF" offset="0%"></stop>
            <stop stop-color="#FFFFFF" stop-opacity="0.500198143" offset="100%"></stop>
        </linearGradient>
    </defs>
    <g id="Logos" stroke="none" stroke-width="1" fill="none" fill-rule="evenodd" sketch:type="MSPage">
        <rect id="Rectangle-38" fill="#000000" sketch:type="MSShapeGroup" x="0" y="0" width="380" height="144"></rect>
        <g id="Logos/today-banner-black" sketch:type="MSArtboardGroup">
            <g id="today-ios-icon" sketch:type="MSLayerGroup" transform="translate(20.000000, 20.000000)">
                <path d="M36.2587333,0 L67.7412667,0 C78.182,0 83.4010667,0 89.0214,1.77666667 C95.1574,4.01006667 99.9899333,8.8426 102.223333,14.9786 C104,20.5980667 104,25.8188667 104,36.2587333 L104,67.7412667 C104,78.182 104,83.4010667 102.223333,89.0214 C99.9899333,95.1574 95.1574,99.9899333 89.0214,102.222467 C83.4010667,104 78.182,104 67.7412667,104 L36.2587333,104 C25.818,104 20.5980667,104 14.9786,102.222467 C8.8426,99.9899333 4.01006667,95.1574 1.77666667,89.0214 C0,83.4010667 0,78.182 0,67.7412667 L0,36.2587333 C0,25.8188667 0,20.5980667 1.77666667,14.9786 C4.01006667,8.8426 8.8426,4.01006667 14.9786,1.77666667 C20.5980667,0 25.818,0 36.2587333,0 L36.2587333,0" id="Icon-Shape" fill="#9BA0AA" sketch:type="MSShapeGroup"></path>
                <path d="M36.7834422,1.73333333 L67.2165578,1.73333333 C77.3092667,1.73333333 82.3543644,1.73333333 87.7873533,3.45077778 C93.71882,5.60973111 98.3902689,10.28118 100.549222,16.2126467 C102.266667,21.6447978 102.266667,26.6915711 102.266667,36.7834422 L102.266667,67.2165578 C102.266667,77.3092667 102.266667,82.3543644 100.549222,87.7873533 C98.3902689,93.71882 93.71882,98.3902689 87.7873533,100.548384 C82.3543644,102.266667 77.3092667,102.266667 67.2165578,102.266667 L36.7834422,102.266667 C26.6907333,102.266667 21.6447978,102.266667 16.2126467,100.548384 C10.28118,98.3902689 5.60973111,93.71882 3.45077778,87.7873533 C1.73333333,82.3543644 1.73333333,77.3092667 1.73333333,67.2165578 L1.73333333,36.7834422 C1.73333333,26.6915711 1.73333333,21.6447978 3.45077778,16.2126467 C5.60973111,10.28118 10.28118,5.60973111 16.2126467,3.45077778 C21.6447978,1.73333333 26.6907333,1.73333333 36.7834422,1.73333333 L36.7834422,1.73333333" id="Icon-Shape-2" fill="#262628" sketch:type="MSShapeGroup"></path>
                <path d="M37.83286,5.2 L66.16714,5.2 C75.5638,5.2 80.26096,5.2 85.31926,6.799 C90.84166,8.80906 95.19094,13.15834 97.201,18.68074 C98.8,23.73826 98.8,28.43698 98.8,37.83286 L98.8,66.16714 C98.8,75.5638 98.8,80.26096 97.201,85.31926 C95.19094,90.84166 90.84166,95.19094 85.31926,97.20022 C80.26096,98.8 75.5638,98.8 66.16714,98.8 L37.83286,98.8 C28.4362,98.8 23.73826,98.8 18.68074,97.20022 C13.15834,95.19094 8.80906,90.84166 6.799,85.31926 C5.2,80.26096 5.2,75.5638 5.2,66.16714 L5.2,37.83286 C5.2,28.43698 5.2,23.73826 6.799,18.68074 C8.80906,13.15834 13.15834,8.80906 18.68074,6.799 C23.73826,5.2 28.4362,5.2 37.83286,5.2 L37.83286,5.2" id="Icon-Shape-3" fill="#000000" sketch:type="MSShapeGroup"></path>
                <circle id="Oval-35" fill="#3B3B3B" sketch:type="MSShapeGroup" cx="51.7111111" cy="51.7111111" r="43.1888889"></circle>
                <g id="Passbook-2" transform="translate(25.133333, 25.133333)" sketch:type="MSShapeGroup">
                    <rect id="Orange" fill="url(#linearGradient-1)" x="0" y="43.2286945" width="42.0814815" height="13.2888889" rx="3"></rect>
                    <rect id="Green" fill="url(#linearGradient-2)" x="0" y="28.7925926" width="55.3783546" height="13.2888889" rx="3"></rect>
                    <rect id="Blue" fill="url(#linearGradient-3)" x="0" y="14.3962963" width="42.0814815" height="13.2888889" rx="3"></rect>
                    <rect id="Red" fill="url(#linearGradient-4)" x="0" y="0" width="55.3783546" height="13.2888889" rx="3"></rect>
                </g>
                <path d="M102.266667,42.1310048 L102.266667,67.2165578 C102.266667,77.3092667 102.266667,82.3543644 100.549222,87.7873533 C98.3902689,93.71882 93.71882,98.3902689 87.7873533,100.548384 C82.3543644,102.266667 77.3092667,102.266667 67.2165578,102.266667 L36.7834422,102.266667 C26.6907333,102.266667 21.6447978,102.266667 16.2126467,100.548384 C10.28118,98.3902689 5.60973111,93.71882 3.45077778,87.7873533 C1.78447555,82.5161485 1.73485625,77.6100774 1.73337868,68.1048984 C14.5401375,52.1398179 50.9332014,41.0737219 93.6240314,41.8188931 C96.5379593,41.8697559 99.4206437,41.9745894 102.266667,42.1310048 Z" id="Oval-37" fill-opacity="0.189999998" fill="url(#linearGradient-5)" sketch:type="MSShapeGroup"></path>
            </g>
            <g id="Logo" sketch:type="MSLayerGroup" transform="translate(148.000000, 33.000000)">
                <path d="M35.4,1.5 L35.4,2.215 L18.305,2.215 L18.305,47 L17.525,47 L17.525,2.215 L0.3,2.215 L0.3,1.5 L35.4,1.5 Z M188.15,27.6625 L188.15,47 L187.37,47 L187.37,27.6625 L170.405,1.5 L171.055,1.5 C171.250001,1.5 171.401666,1.5866658 171.51,1.76 L186.8175,25.485 C186.990834,25.7666681 187.158749,26.0320821 187.32125,26.28125 C187.483751,26.5304179 187.629999,26.7849987 187.76,27.045 C187.868334,26.7849987 188.009166,26.5304179 188.1825,26.28125 C188.355834,26.0320821 188.529166,25.7666681 188.7025,25.485 L204.01,1.76 C204.118334,1.5866658 204.269999,1.5 204.465,1.5 L205.115,1.5 L188.15,27.6625 Z" id="TODAY" fill="#FFFFFF" sketch:type="MSShapeGroup"></path>
                <path d="M79.08,24.25 C79.08,27.8466847 78.5654218,31.0749857 77.53625,33.935 C76.5070782,36.7950143 75.0662593,39.2270733 73.21375,41.23125 C71.3612407,43.2354267 69.1458462,44.7737446 66.5675,45.84625 C63.9891538,46.9187554 61.1400156,47.455 58.02,47.455 C54.9216512,47.455 52.0887628,46.9187554 49.52125,45.84625 C46.9537372,44.7737446 44.7437593,43.2354267 42.89125,41.23125 C41.0387407,39.2270733 39.5979218,36.7950143 38.56875,33.935 C37.5395782,31.0749857 37.025,27.8466847 37.025,24.25 C37.025,20.6749821 37.5395782,17.4520977 38.56875,14.58125 C39.5979218,11.7104023 41.0387407,9.26751008 42.89125,7.2525 C44.7437593,5.23748993 46.9537372,3.68833875 49.52125,2.605 C52.0887628,1.52166125 54.9216512,0.98 58.02,0.98 C61.1400156,0.98 63.9891538,1.51624464 66.5675,2.58875 C69.1458462,3.66125536 71.3612407,5.20498993 73.21375,7.22 C75.0662593,9.23501008 76.5070782,11.6779023 77.53625,14.54875 C78.5654218,17.4195977 79.08,20.6533154 79.08,24.25 Z M78.235,24.25 C78.235,20.7183157 77.7420883,17.555014 76.75625,14.76 C75.7704117,11.964986 74.3891756,9.59250975 72.6125,7.6425 C70.8358245,5.69249025 68.7070957,4.20292181 66.22625,3.17375 C63.7454043,2.14457819 61.010015,1.63 58.02,1.63 C55.0733186,1.63 52.3650124,2.14457819 49.895,3.17375 C47.4249876,4.20292181 45.2962589,5.69249025 43.50875,7.6425 C41.7212411,9.59250975 40.323755,11.964986 39.31625,14.76 C38.308745,17.555014 37.805,20.7183157 37.805,24.25 C37.805,27.7816843 38.308745,30.9395694 39.31625,33.72375 C40.323755,36.5079306 41.7212411,38.8695736 43.50875,40.80875 C45.2962589,42.7479264 47.4249876,44.2320782 49.895,45.26125 C52.3650124,46.2904218 55.0733186,46.805 58.02,46.805 C61.010015,46.805 63.7454043,46.2904218 66.22625,45.26125 C68.7070957,44.2320782 70.8358245,42.7479264 72.6125,40.80875 C74.3891756,38.8695736 75.7704117,36.5079306 76.75625,33.72375 C77.7420883,30.9395694 78.235,27.7816843 78.235,24.25 Z" id="Path" fill="#FF5D4D" sketch:type="MSShapeGroup"></path>
                <path d="M129.065,24.25 C129.065,27.8466847 128.550422,31.0533193 127.52125,33.87 C126.492078,36.6866807 125.051259,39.0699903 123.19875,41.02 C121.346241,42.9700098 119.130846,44.4541616 116.5525,45.4725 C113.974154,46.4908384 111.125016,47 108.005,47 L91.755,47 L91.755,1.5 L108.005,1.5 C111.125016,1.5 113.974154,2.00916157 116.5525,3.0275 C119.130846,4.04583842 121.346241,5.52999025 123.19875,7.48 C125.051259,9.43000975 126.492078,11.8133192 127.52125,14.63 C128.550422,17.4466807 129.065,20.6533153 129.065,24.25 Z M128.22,24.25 C128.22,20.7183157 127.727088,17.582097 126.74125,14.84125 C125.755412,12.100403 124.374176,9.78750943 122.5975,7.9025 C120.820824,6.01749058 118.692096,4.58750488 116.21125,3.6125 C113.730404,2.63749513 110.995015,2.15 108.005,2.15 L92.535,2.15 L92.535,46.35 L108.005,46.35 C110.995015,46.35 113.730404,45.8625049 116.21125,44.8875 C118.692096,43.9124951 120.820824,42.4825094 122.5975,40.5975 C124.374176,38.7124906 125.755412,36.399597 126.74125,33.65875 C127.727088,30.917903 128.22,27.7816843 128.22,24.25 Z" id="Path" fill="#47A6DA" sketch:type="MSShapeGroup"></path>
                <path d="M172.355,47 L171.77,47 C171.574999,47 171.445,46.8916677 171.38,46.675 L165.0425,31.465 L141.0575,31.465 L134.72,46.675 C134.655,46.8916677 134.503335,47 134.265,47 L133.745,47 L152.725,1.5 L153.375,1.5 L172.355,47 Z M141.3175,30.815 L164.7825,30.815 L153.57,3.905 C153.461666,3.66666548 153.369584,3.44458436 153.29375,3.23875 C153.217916,3.03291564 153.136667,2.81083453 153.05,2.5725 C152.963333,2.81083453 152.882084,3.03291564 152.80625,3.23875 C152.730416,3.44458436 152.638334,3.66666548 152.53,3.905 L141.3175,30.815 Z" id="Path" fill="#44D400" sketch:type="MSShapeGroup"></path>
            </g>
            <path d="M145.933,106.445 L145.933,113 L144.76,113 L144.76,96.7275 L148.9575,96.7275 C150.86651,96.7275 152.305912,97.1453292 153.27575,97.981 C154.245588,98.8166708 154.7305,100.008826 154.7305,101.5575 C154.7305,102.270504 154.598251,102.925997 154.33375,103.524 C154.069249,104.122003 153.687836,104.637581 153.1895,105.07075 C152.691164,105.503919 152.085504,105.841249 151.3725,106.08275 C150.659496,106.324251 149.854504,106.445 148.9575,106.445 L145.933,106.445 Z M145.933,105.502 L148.9575,105.502 C149.67817,105.502 150.322164,105.402334 150.8895,105.203 C151.456836,105.003666 151.937915,104.727668 152.33275,104.375 C152.727585,104.022332 153.030416,103.606419 153.24125,103.12725 C153.452084,102.648081 153.5575,102.124836 153.5575,101.5575 C153.5575,100.307827 153.172254,99.34567 152.40175,98.671 C151.631246,97.99633 150.483174,97.659 148.9575,97.659 L145.933,97.659 L145.933,105.502 Z M158.928,96.2675 L158.928,113 L157.8355,113 L157.8355,96.2675 L158.928,96.2675 Z M170.2785,113 C170.048499,113 169.906667,112.892668 169.853,112.678 L169.692,111.2175 C169.377665,111.524168 169.065252,111.800165 168.75475,112.0455 C168.444248,112.290835 168.120335,112.497832 167.783,112.6665 C167.445665,112.835168 167.081502,112.963583 166.6905,113.05175 C166.299498,113.139917 165.870169,113.184 165.4025,113.184 C165.011498,113.184 164.632002,113.126501 164.264,113.0115 C163.895998,112.896499 163.570168,112.720168 163.2865,112.4825 C163.002832,112.244832 162.774751,111.940085 162.60225,111.56825 C162.429749,111.196415 162.3435,110.749836 162.3435,110.2285 C162.3435,109.745498 162.481499,109.297002 162.7575,108.883 C163.033501,108.468998 163.464747,108.108668 164.05125,107.802 C164.637753,107.495332 165.392912,107.250001 166.31675,107.066 C167.240588,106.881999 168.350327,106.774667 169.646,106.744 L169.646,105.548 C169.646,104.489995 169.417919,103.67542 168.96175,103.10425 C168.505581,102.53308 167.829004,102.2475 166.932,102.2475 C166.379997,102.2475 165.910419,102.324166 165.52325,102.4775 C165.136081,102.630834 164.808335,102.799499 164.54,102.9835 C164.271665,103.167501 164.053168,103.336166 163.8845,103.4895 C163.715832,103.642834 163.574001,103.7195 163.459,103.7195 C163.305666,103.7195 163.190667,103.650501 163.114,103.5125 L162.9185,103.179 C163.516503,102.580997 164.145163,102.128668 164.8045,101.822 C165.463837,101.515332 166.211329,101.362 167.047,101.362 C167.660336,101.362 168.196998,101.459749 168.657,101.65525 C169.117002,101.850751 169.498415,102.130582 169.80125,102.49475 C170.104085,102.858918 170.332166,103.299747 170.4855,103.81725 C170.638834,104.334753 170.7155,104.911663 170.7155,105.548 L170.7155,113 L170.2785,113 Z M165.6785,112.3905 C166.123169,112.3905 166.531415,112.342584 166.90325,112.24675 C167.275085,112.150916 167.620082,112.016751 167.93825,111.84425 C168.256418,111.671749 168.553499,111.466668 168.8295,111.229 C169.105501,110.991332 169.377665,110.734501 169.646,110.4585 L169.646,107.48 C168.557328,107.510667 167.620087,107.593083 166.83425,107.72725 C166.048413,107.861417 165.400586,108.043499 164.89075,108.2735 C164.380914,108.503501 164.005251,108.777582 163.76375,109.09575 C163.522249,109.413918 163.4015,109.776165 163.4015,110.1825 C163.4015,110.565835 163.464749,110.897415 163.59125,111.17725 C163.717751,111.457085 163.884499,111.687082 164.0915,111.86725 C164.298501,112.047418 164.539999,112.179666 164.816,112.264 C165.092001,112.348334 165.379499,112.3905 165.6785,112.3905 L165.6785,112.3905 Z M174.1655,113 L174.1655,101.5575 L174.7635,101.5575 C174.962834,101.5575 175.077833,101.653332 175.1085,101.845 L175.212,103.57 C175.733336,102.910663 176.340913,102.379752 177.03475,101.97725 C177.728587,101.574748 178.500996,101.3735 179.352,101.3735 C179.98067,101.3735 180.534581,101.473166 181.01375,101.6725 C181.492919,101.871834 181.889665,102.159331 182.204,102.535 C182.518335,102.910669 182.755999,103.362997 182.917,103.892 C183.078001,104.421003 183.1585,105.018997 183.1585,105.686 L183.1585,113 L182.066,113 L182.066,105.686 C182.066,104.612661 181.820669,103.771253 181.33,103.16175 C180.839331,102.552247 180.088005,102.2475 179.076,102.2475 C178.324663,102.2475 177.627003,102.441081 176.983,102.82825 C176.338997,103.215419 175.764003,103.74633 175.258,104.421 L175.258,113 L174.1655,113 Z M196.2455,102.374 C195.2105,102.374 194.3595,103.225 194.3595,104.26 C194.3595,105.295 195.2105,106.146 196.2455,106.146 C197.2805,106.146 198.1315,105.295 198.1315,104.26 C198.1315,103.225 197.2805,102.374 196.2455,102.374 L196.2455,102.374 Z M219.9125,96.7275 L219.9125,97.705 L211.345,97.705 L211.345,104.5475 L218.7625,104.5475 L218.7625,105.525 L211.345,105.525 L211.345,113 L210.1605,113 L210.1605,96.7275 L219.9125,96.7275 Z M226.2605,101.3735 C227.080837,101.3735 227.814913,101.513415 228.46275,101.79325 C229.110587,102.073085 229.656831,102.469831 230.1015,102.9835 C230.546169,103.497169 230.885415,104.116246 231.11925,104.84075 C231.353085,105.565254 231.47,106.375996 231.47,107.273 C231.47,108.170004 231.353085,108.97883 231.11925,109.6995 C230.885415,110.42017 230.546169,111.037331 230.1015,111.551 C229.656831,112.064669 229.110587,112.459499 228.46275,112.7355 C227.814913,113.011501 227.080837,113.1495 226.2605,113.1495 C225.440163,113.1495 224.706087,113.011501 224.05825,112.7355 C223.410413,112.459499 222.862252,112.064669 222.41375,111.551 C221.965248,111.037331 221.624085,110.42017 221.39025,109.6995 C221.156415,108.97883 221.0395,108.170004 221.0395,107.273 C221.0395,106.375996 221.156415,105.565254 221.39025,104.84075 C221.624085,104.116246 221.965248,103.497169 222.41375,102.9835 C222.862252,102.469831 223.410413,102.073085 224.05825,101.79325 C224.706087,101.513415 225.440163,101.3735 226.2605,101.3735 L226.2605,101.3735 Z M226.2605,112.287 C226.942837,112.287 227.538914,112.170085 228.04875,111.93625 C228.558586,111.702415 228.984082,111.367002 229.32525,110.93 C229.666418,110.492998 229.921332,109.96592 230.09,109.34875 C230.258668,108.73158 230.343,108.03967 230.343,107.273 C230.343,106.513996 230.258668,105.824003 230.09,105.203 C229.921332,104.581997 229.666418,104.051086 229.32525,103.61025 C228.984082,103.169414 228.558586,102.830168 228.04875,102.5925 C227.538914,102.354832 226.942837,102.236 226.2605,102.236 C225.578163,102.236 224.982086,102.354832 224.47225,102.5925 C223.962414,102.830168 223.536918,103.169414 223.19575,103.61025 C222.854582,104.051086 222.597751,104.581997 222.42525,105.203 C222.252749,105.824003 222.1665,106.513996 222.1665,107.273 C222.1665,108.03967 222.252749,108.73158 222.42525,109.34875 C222.597751,109.96592 222.854582,110.492998 223.19575,110.93 C223.536918,111.367002 223.962414,111.702415 224.47225,111.93625 C224.982086,112.170085 225.578163,112.287 226.2605,112.287 L226.2605,112.287 Z M241.8775,103.087 C241.839166,103.125334 241.80275,103.157917 241.76825,103.18475 C241.73375,103.211583 241.685834,103.225 241.6245,103.225 C241.547833,103.225 241.442417,103.173251 241.30825,103.06975 C241.174083,102.966249 240.995834,102.853167 240.7735,102.7305 C240.551166,102.607833 240.273252,102.494751 239.93975,102.39125 C239.606248,102.287749 239.201836,102.236 238.7265,102.236 C238.067163,102.236 237.482586,102.352915 236.97275,102.58675 C236.462914,102.820585 236.033585,103.155998 235.68475,103.593 C235.335915,104.030002 235.069501,104.558997 234.8855,105.18 C234.701499,105.801003 234.6095,106.498663 234.6095,107.273 C234.6095,108.078004 234.703416,108.790997 234.89125,109.412 C235.079084,110.033003 235.345498,110.556248 235.6905,110.98175 C236.035502,111.407252 236.453331,111.731166 236.944,111.9535 C237.434669,112.175834 237.978997,112.287 238.577,112.287 C239.129003,112.287 239.590915,112.221834 239.96275,112.0915 C240.334585,111.961166 240.641249,111.819334 240.88275,111.666 C241.124251,111.512666 241.315916,111.370834 241.45775,111.2405 C241.599584,111.110166 241.712666,111.045 241.797,111.045 C241.896667,111.045 241.973333,111.083333 242.027,111.16 L242.326,111.528 C242.149666,111.758001 241.927335,111.972666 241.659,112.172 C241.390665,112.371334 241.087835,112.543833 240.7505,112.6895 C240.413165,112.835167 240.047085,112.94825 239.65225,113.02875 C239.257415,113.10925 238.845335,113.1495 238.416,113.1495 C237.687663,113.1495 237.022586,113.017251 236.42075,112.75275 C235.818914,112.488249 235.301419,112.104919 234.86825,111.60275 C234.435081,111.100581 234.097751,110.485337 233.85625,109.757 C233.614749,109.028663 233.494,108.200671 233.494,107.273 C233.494,106.398996 233.608999,105.60167 233.839,104.881 C234.069001,104.16033 234.404414,103.539336 234.84525,103.018 C235.286086,102.496664 235.82658,102.092251 236.46675,101.80475 C237.10692,101.517249 237.840996,101.3735 238.669,101.3735 C239.41267,101.3735 240.073914,101.492332 240.65275,101.73 C241.231586,101.967668 241.735665,102.289665 242.165,102.696 L241.8775,103.087 Z M245.6265,101.5575 L245.6265,108.8715 C245.6265,109.944839 245.871831,110.786247 246.3625,111.39575 C246.853169,112.005253 247.600662,112.31 248.605,112.31 C249.34867,112.31 250.042497,112.120252 250.6865,111.74075 C251.330503,111.361248 251.909331,110.83417 252.423,110.1595 L252.423,101.5575 L253.527,101.5575 L253.527,113 L252.9175,113 C252.702832,113 252.591667,112.900334 252.584,112.701 L252.4805,110.999 C251.951497,111.658337 251.340087,112.187331 250.64625,112.586 C249.952413,112.984669 249.180004,113.184 248.329,113.184 C247.692663,113.184 247.136836,113.084334 246.6615,112.885 C246.186164,112.685666 245.791335,112.398169 245.477,112.0225 C245.162665,111.646831 244.925001,111.194503 244.764,110.6655 C244.602999,110.136497 244.5225,109.538503 244.5225,108.8715 L244.5225,101.5575 L245.6265,101.5575 Z M263.555,102.972 C263.501333,103.079334 263.417001,103.133 263.302,103.133 C263.217666,103.133 263.108417,103.085084 262.97425,102.98925 C262.840083,102.893416 262.663751,102.786084 262.44525,102.66725 C262.226749,102.548416 261.958418,102.441084 261.64025,102.34525 C261.322082,102.249416 260.933002,102.2015 260.473,102.2015 C260.058998,102.2015 259.681418,102.260916 259.34025,102.37975 C258.999082,102.498584 258.707751,102.657666 258.46625,102.857 C258.224749,103.056334 258.036917,103.288249 257.90275,103.55275 C257.768583,103.817251 257.7015,104.095165 257.7015,104.3865 C257.7015,104.746835 257.793499,105.045832 257.9775,105.2835 C258.161501,105.521168 258.402999,105.724332 258.702,105.893 C259.001001,106.061668 259.340248,106.207333 259.71975,106.33 C260.099252,106.452667 260.488331,106.575333 260.887,106.698 C261.285669,106.820667 261.674748,106.956749 262.05425,107.10625 C262.433752,107.255751 262.772999,107.441666 263.072,107.664 C263.371001,107.886334 263.612499,108.158498 263.7965,108.4805 C263.980501,108.802502 264.0725,109.193498 264.0725,109.6535 C264.0725,110.151836 263.982418,110.615665 263.80225,111.045 C263.622082,111.474335 263.361418,111.846165 263.02025,112.1605 C262.679082,112.474835 262.259336,112.723999 261.761,112.908 C261.262664,113.092001 260.695337,113.184 260.059,113.184 C259.253996,113.184 258.56017,113.055585 257.9775,112.79875 C257.39483,112.541915 256.873502,112.206502 256.4135,111.7925 L256.678,111.4015 C256.716334,111.340166 256.7585,111.294167 256.8045,111.2635 C256.8505,111.232833 256.915666,111.2175 257,111.2175 C257.099667,111.2175 257.222333,111.278833 257.368,111.4015 C257.513667,111.524167 257.703415,111.656416 257.93725,111.79825 C258.171085,111.940084 258.462415,112.072333 258.81125,112.195 C259.160085,112.317667 259.591331,112.379 260.105,112.379 C260.588002,112.379 261.013498,112.311917 261.3815,112.17775 C261.749502,112.043583 262.056165,111.861501 262.3015,111.6315 C262.546835,111.401499 262.732749,111.131252 262.85925,110.82075 C262.985751,110.510248 263.049,110.182502 263.049,109.8375 C263.049,109.454165 262.957001,109.136001 262.773,108.883 C262.588999,108.629999 262.347501,108.415334 262.0485,108.239 C261.749499,108.062666 261.410252,107.913167 261.03075,107.7905 C260.651248,107.667833 260.260252,107.545167 259.85775,107.4225 C259.455248,107.299833 259.064252,107.165667 258.68475,107.02 C258.305248,106.874333 257.966001,106.690334 257.667,106.468 C257.367999,106.245666 257.126501,105.975418 256.9425,105.65725 C256.758499,105.339082 256.6665,104.942336 256.6665,104.467 C256.6665,104.060665 256.754666,103.669669 256.931,103.294 C257.107334,102.918331 257.358415,102.588668 257.68425,102.305 C258.010085,102.021332 258.406831,101.795168 258.8745,101.6265 C259.342169,101.457832 259.86733,101.3735 260.45,101.3735 C261.14767,101.3735 261.766747,101.473166 262.30725,101.6725 C262.847753,101.871834 263.344164,102.178498 263.7965,102.5925 L263.555,102.972 Z M276.78,102.374 C275.745,102.374 274.894,103.225 274.894,104.26 C274.894,105.295 275.745,106.146 276.78,106.146 C277.815,106.146 278.666,105.295 278.666,104.26 C278.666,103.225 277.815,102.374 276.78,102.374 L276.78,102.374 Z M292.213,105.64 L292.213,113 L291.04,113 L291.04,96.7275 L295.1915,96.7275 C297.069843,96.7275 298.472829,97.0897464 299.4005,97.81425 C300.328171,98.5387536 300.792,99.602493 300.792,101.0055 C300.792,101.626503 300.684668,102.193831 300.47,102.7075 C300.255332,103.221169 299.946752,103.671581 299.54425,104.05875 C299.141748,104.445919 298.656836,104.764082 298.0895,105.01325 C297.522164,105.262418 296.882004,105.425333 296.169,105.502 C296.353001,105.617001 296.517833,105.770332 296.6635,105.962 L302.264,113 L301.2405,113 C301.117833,113 301.012417,112.977 300.92425,112.931 C300.836083,112.885 300.749834,112.808334 300.6655,112.701 L295.456,106.1 C295.325666,105.931332 295.185751,105.8125 295.03625,105.7435 C294.886749,105.6745 294.654835,105.64 294.3405,105.64 L292.213,105.64 Z M292.213,104.766 L295.042,104.766 C295.76267,104.766 296.40858,104.679751 296.97975,104.50725 C297.55092,104.334749 298.033915,104.087502 298.42875,103.7655 C298.823585,103.443498 299.124499,103.056336 299.3315,102.604 C299.538501,102.151664 299.642,101.641836 299.642,101.0745 C299.642,99.9168275 299.262504,99.0581695 298.5035,98.4985 C297.744496,97.9388305 296.640507,97.659 295.1915,97.659 L292.213,97.659 L292.213,104.766 Z M308.9685,101.3735 C309.612503,101.3735 310.208581,101.484666 310.75675,101.707 C311.304919,101.929334 311.780248,102.253248 312.18275,102.67875 C312.585252,103.104252 312.899582,103.627497 313.12575,104.2485 C313.351918,104.869503 313.465,105.582496 313.465,106.3875 C313.465,106.556168 313.440084,106.671166 313.39025,106.7325 C313.340416,106.793834 313.261834,106.8245 313.1545,106.8245 L304.886,106.8245 L304.886,107.043 C304.886,107.901671 304.985666,108.65683 305.185,109.3085 C305.384334,109.96017 305.667998,110.506414 306.036,110.94725 C306.404002,111.388086 306.848664,111.719666 307.37,111.942 C307.891336,112.164334 308.473997,112.2755 309.118,112.2755 C309.693003,112.2755 310.191331,112.212251 310.613,112.08575 C311.034669,111.959249 311.389249,111.817417 311.67675,111.66025 C311.964251,111.503083 312.192332,111.361251 312.361,111.23475 C312.529668,111.108249 312.652333,111.045 312.729,111.045 C312.828667,111.045 312.905333,111.083333 312.959,111.16 L313.258,111.528 C313.073999,111.758001 312.830585,111.972666 312.52775,112.172 C312.224915,112.371334 311.887585,112.541916 311.51575,112.68375 C311.143915,112.825584 310.745252,112.938666 310.31975,113.023 C309.894248,113.107334 309.466835,113.1495 309.0375,113.1495 C308.255496,113.1495 307.542503,113.013418 306.8985,112.74125 C306.254497,112.469082 305.702502,112.072336 305.2425,111.551 C304.782498,111.029664 304.427918,110.39142 304.17875,109.63625 C303.929582,108.88108 303.805,108.016672 303.805,107.043 C303.805,106.222663 303.921915,105.465587 304.15575,104.77175 C304.389585,104.077913 304.726914,103.479919 305.16775,102.97775 C305.608586,102.475581 306.14908,102.082668 306.78925,101.799 C307.42942,101.515332 308.155829,101.3735 308.9685,101.3735 L308.9685,101.3735 Z M308.98,102.19 C308.389664,102.19 307.860669,102.281999 307.393,102.466 C306.925331,102.650001 306.520918,102.914498 306.17975,103.2595 C305.838582,103.604502 305.562584,104.018498 305.35175,104.5015 C305.140916,104.984502 305.001,105.524997 304.932,106.123 L312.476,106.123 C312.476,105.509664 312.391668,104.959586 312.223,104.47275 C312.054332,103.985914 311.816668,103.573835 311.51,103.2365 C311.203332,102.899165 310.835335,102.640418 310.406,102.46025 C309.976665,102.280082 309.501336,102.19 308.98,102.19 L308.98,102.19 Z M320.4225,113 L319.4565,113 L314.6265,101.5575 L315.489,101.5575 C315.596334,101.5575 315.682583,101.58625 315.74775,101.64375 C315.812917,101.70125 315.860833,101.7645 315.8915,101.8335 L319.6635,110.861 C319.740167,111.037334 319.797666,111.205999 319.836,111.367 C319.874334,111.528001 319.912666,111.688999 319.951,111.85 C319.989334,111.688999 320.029583,111.526084 320.07175,111.36125 C320.113917,111.196416 320.1695,111.029668 320.2385,110.861 L324.0335,101.8335 C324.071834,101.749166 324.123583,101.682084 324.18875,101.63225 C324.253917,101.582416 324.3325,101.5575 324.4245,101.5575 L325.2525,101.5575 L320.4225,113 Z M328.8175,101.5575 L328.8175,113 L327.725,113 L327.725,101.5575 L328.8175,101.5575 Z M329.3005,97.613 C329.3005,97.7510007 329.27175,97.8794161 329.21425,97.99825 C329.15675,98.1170839 329.082,98.2224995 328.99,98.3145 C328.898,98.4065005 328.790667,98.4793331 328.668,98.533 C328.545333,98.5866669 328.415001,98.6135 328.277,98.6135 C328.138999,98.6135 328.008667,98.5866669 327.886,98.533 C327.763333,98.4793331 327.656,98.4065005 327.564,98.3145 C327.472,98.2224995 327.399167,98.1170839 327.3455,97.99825 C327.291833,97.8794161 327.265,97.7510007 327.265,97.613 C327.265,97.4749993 327.291833,97.3427506 327.3455,97.21625 C327.399167,97.0897494 327.472,96.9805005 327.564,96.8885 C327.656,96.7964995 327.763333,96.7236669 327.886,96.67 C328.008667,96.6163331 328.138999,96.5895 328.277,96.5895 C328.415001,96.5895 328.545333,96.6163331 328.668,96.67 C328.790667,96.7236669 328.898,96.7964995 328.99,96.8885 C329.082,96.9805005 329.15675,97.0897494 329.21425,97.21625 C329.27175,97.3427506 329.3005,97.4749993 329.3005,97.613 L329.3005,97.613 Z M337.178,101.3735 C337.822003,101.3735 338.418081,101.484666 338.96625,101.707 C339.514419,101.929334 339.989748,102.253248 340.39225,102.67875 C340.794752,103.104252 341.109082,103.627497 341.33525,104.2485 C341.561418,104.869503 341.6745,105.582496 341.6745,106.3875 C341.6745,106.556168 341.649584,106.671166 341.59975,106.7325 C341.549916,106.793834 341.471334,106.8245 341.364,106.8245 L333.0955,106.8245 L333.0955,107.043 C333.0955,107.901671 333.195166,108.65683 333.3945,109.3085 C333.593834,109.96017 333.877498,110.506414 334.2455,110.94725 C334.613502,111.388086 335.058164,111.719666 335.5795,111.942 C336.100836,112.164334 336.683497,112.2755 337.3275,112.2755 C337.902503,112.2755 338.400831,112.212251 338.8225,112.08575 C339.244169,111.959249 339.598749,111.817417 339.88625,111.66025 C340.173751,111.503083 340.401832,111.361251 340.5705,111.23475 C340.739168,111.108249 340.861833,111.045 340.9385,111.045 C341.038167,111.045 341.114833,111.083333 341.1685,111.16 L341.4675,111.528 C341.283499,111.758001 341.040085,111.972666 340.73725,112.172 C340.434415,112.371334 340.097085,112.541916 339.72525,112.68375 C339.353415,112.825584 338.954752,112.938666 338.52925,113.023 C338.103748,113.107334 337.676335,113.1495 337.247,113.1495 C336.464996,113.1495 335.752003,113.013418 335.108,112.74125 C334.463997,112.469082 333.912002,112.072336 333.452,111.551 C332.991998,111.029664 332.637418,110.39142 332.38825,109.63625 C332.139082,108.88108 332.0145,108.016672 332.0145,107.043 C332.0145,106.222663 332.131415,105.465587 332.36525,104.77175 C332.599085,104.077913 332.936414,103.479919 333.37725,102.97775 C333.818086,102.475581 334.35858,102.082668 334.99875,101.799 C335.63892,101.515332 336.365329,101.3735 337.178,101.3735 L337.178,101.3735 Z M337.1895,102.19 C336.599164,102.19 336.070169,102.281999 335.6025,102.466 C335.134831,102.650001 334.730418,102.914498 334.38925,103.2595 C334.048082,103.604502 333.772084,104.018498 333.56125,104.5015 C333.350416,104.984502 333.2105,105.524997 333.1415,106.123 L340.6855,106.123 C340.6855,105.509664 340.601168,104.959586 340.4325,104.47275 C340.263832,103.985914 340.026168,103.573835 339.7195,103.2365 C339.412832,102.899165 339.044835,102.640418 338.6155,102.46025 C338.186165,102.280082 337.710836,102.19 337.1895,102.19 L337.1895,102.19 Z M343.0085,101.5575 L343.848,101.5575 C343.955334,101.5575 344.0435,101.58625 344.1125,101.64375 C344.1815,101.70125 344.2275,101.7645 344.2505,101.8335 L347.137,110.861 C347.190667,111.037334 347.232833,111.205999 347.2635,111.367 C347.294167,111.528001 347.324833,111.688999 347.3555,111.85 C347.393834,111.688999 347.436,111.528001 347.482,111.367 C347.528,111.205999 347.581666,111.037334 347.643,110.861 L350.7135,101.753 C350.767167,101.584332 350.874499,101.5 351.0355,101.5 L351.484,101.5 C351.652668,101.5 351.763833,101.584332 351.8175,101.753 L354.842,110.861 C354.957001,111.206002 355.049,111.539498 355.118,111.8615 C355.148667,111.700499 355.18125,111.537584 355.21575,111.37275 C355.25025,111.207916 355.298166,111.037334 355.3595,110.861 L358.2575,101.8335 C358.318834,101.649499 358.449166,101.5575 358.6485,101.5575 L359.4535,101.5575 L355.624,113 L354.819,113 C354.696333,113 354.608167,112.919501 354.5545,112.7585 L351.415,103.4665 C351.376666,103.351499 351.342167,103.236501 351.3115,103.1215 C351.280833,103.006499 351.254,102.891501 351.231,102.7765 C351.208,102.891501 351.183083,103.006499 351.15625,103.1215 C351.129417,103.236501 351.096834,103.351499 351.0585,103.4665 L347.8845,112.7585 C347.8385,112.919501 347.746501,113 347.6085,113 L346.838,113 L343.0085,101.5575 Z" id="Plan・Focus・Review" fill="#B3B3B3" sketch:type="MSShapeGroup"></path>
        </g>
    </g>
</svg>