<?xml version="1.0" encoding="UTF-8" standalone="no"?>
<svg width="120px" height="120px" viewBox="0 0 120 120" version="1.1" xmlns="http://www.w3.org/2000/svg" xmlns:xlink="http://www.w3.org/1999/xlink" xmlns:sketch="http://www.bohemiancoding.com/sketch/ns">
    <!-- Generator: Sketch 3.3.3 (12072) - http://www.bohemiancoding.com/sketch -->
    <title>Logos/today-ios-icon</title>
    <desc>Created with Sketch.</desc>
    <defs></defs>
    <g id="Logos" stroke="none" stroke-width="1" fill="none" fill-rule="evenodd" sketch:type="MSPage">
        <g id="Logos/today-ios-icon" sketch:type="MSArtboardGroup">
            <g id="AppIcon" sketch:type="MSLayerGroup">
                <path d="M78.163,0 C90.21,0 96.232,0 102.717,2.05 C109.797,4.627 115.373,10.203 117.95,17.283 C120,23.767 120,29.791 120,41.837 L120,78.163 C120,90.21 120,96.232 117.95,102.717 C115.373,109.797 109.797,115.373 102.717,117.949 C96.232,120 90.21,120 78.163,120 L41.837,120 C29.79,120 23.767,120 17.283,117.949 C10.203,115.373 4.627,109.797 2.05,102.717 C0,96.232 0,90.21 0,78.163 L0,41.837 C0,29.791 0,23.767 2.05,17.283 C4.627,10.203 10.203,4.627 17.283,2.05 C23.767,0 29.79,0 41.837,0 L78.163,0 Z" id="Icon-Shape" fill="#202020" sketch:type="MSShapeGroup"></path>
                <g id="Group" transform="translate(26.000000, 26.000000)" sketch:type="MSShapeGroup">
                    <rect id="Orange" fill="#F6A01A" x="0" y="54" width="52" height="16" rx="4"></rect>
                    <rect id="Green" fill="#44D400" x="0" y="36" width="70" height="16" rx="4"></rect>
                    <rect id="Blue" fill="#47A6DA" x="0" y="18" width="52" height="16" rx="4"></rect>
                    <rect id="Red" fill="#FF5D4D" x="0" y="0" width="70" height="16" rx="4"></rect>
                </g>
            </g>
        </g>
    </g>
</svg>