<?xml version="1.0" encoding="UTF-8" standalone="no"?>
<svg width="116px" height="24px" viewBox="0 0 116 24" version="1.1" xmlns="http://www.w3.org/2000/svg" xmlns:xlink="http://www.w3.org/1999/xlink" xmlns:sketch="http://www.bohemiancoding.com/sketch/ns">
    <!-- Generator: Sketch Beta 3.3.2 (12041) - http://www.bohemiancoding.com/sketch -->
    <title>Logos/today-text@1x</title>
    <desc>Created with Sketch Beta.</desc>
    <defs>
        <linearGradient x1="50%" y1="0%" x2="50%" y2="100%" id="linearGradient-1">
            <stop stop-color="#FF5D4D" offset="0%"></stop>
            <stop stop-color="#FA403B" offset="100%"></stop>
        </linearGradient>
        <linearGradient x1="50%" y1="0%" x2="50%" y2="100%" id="linearGradient-2">
            <stop stop-color="#47A6DA" offset="0%"></stop>
            <stop stop-color="#4C9ECC" offset="100%"></stop>
        </linearGradient>
        <linearGradient x1="50%" y1="0%" x2="50%" y2="100%" id="linearGradient-3">
            <stop stop-color="#44D400" offset="0%"></stop>
            <stop stop-color="#29C102" offset="100%"></stop>
        </linearGradient>
    </defs>
    <g id="App-Icon" stroke="none" stroke-width="1" fill="none" fill-rule="evenodd" sketch:type="MSPage">
        <g id="Logos/today-text" sketch:type="MSArtboardGroup">
            <g id="Icon-/-Today-Logo" sketch:type="MSLayerGroup">
                <path d="M21.8372613,2.08695652 C21.8372613,1.55269565 21.8038198,1.21878261 21.7369369,1.05182609 C21.2018739,0.884869565 18.1587027,0.784695652 12.6074234,0.784695652 C5.61816216,0.784695652 1.70551351,0.91826087 0.902918919,1.1186087 C0.836036036,1.51930435 0.836036036,1.81982609 0.836036036,2.08695652 C0.836036036,2.48765217 0.869477477,2.82156522 1.00324324,3.08869565 C1.63863063,3.28904348 3.27726126,3.35582609 5.91913514,3.35582609 C15.7843604,3.35582609 21.0681081,3.22226087 21.7369369,2.92173913 C21.8038198,2.75478261 21.8372613,2.48765217 21.8372613,2.08695652 L21.8372613,2.08695652 Z" id="Path" fill-opacity="0.504987538" fill="#FFFFFF" sketch:type="MSShapeGroup"></path>
                <path d="M13.2428108,22.6226087 C13.1759279,20.3853913 13.0087207,17.1464348 12.7411892,12.8723478 C12.3733333,8.19756522 12.1058018,5.52626087 11.972036,4.79165217 C11.7379459,4.72486957 11.3366486,4.69147826 10.8015856,4.69147826 C10.2665225,4.69147826 9.89866667,4.79165217 9.63113514,4.9586087 C9.83178378,12.3046957 10.2665225,18.2817391 10.9019099,22.8563478 C11.1025586,22.9231304 11.5038559,22.9565217 12.1058018,22.9565217 C12.573982,22.9565217 12.9418378,22.8563478 13.2428108,22.6226087 L13.2428108,22.6226087 Z" id="Path" fill-opacity="0.504987538" fill="#FFFFFF" sketch:type="MSShapeGroup"></path>
                <path d="M46.4836036,12.7053913 C46.4836036,8.832 45.0456216,5.7933913 42.1696577,3.65634783 C42.0024505,3.78991304 41.7683604,3.99026087 41.4339459,4.2573913 C41.132973,4.59130435 40.9323243,4.89182609 40.832,5.15895652 C41.969009,6.29426087 42.7716036,7.39617391 43.2732252,8.53147826 C43.6745225,9.70017391 43.9086126,11.0358261 43.9086126,12.5050435 C43.9086126,13.9074783 43.4738739,15.2765217 42.6712793,16.6789565 C41.8018018,17.8476522 40.6647928,18.816 39.2602523,19.584 C39.394018,20.3186087 39.694991,20.9530435 40.1631712,21.5206957 C42.0024505,20.9196522 43.5407568,19.7843478 44.8115315,18.1147826 C45.8816577,16.512 46.4501622,14.7088696 46.4836036,12.7053913 L46.4836036,12.7053913 Z" id="Path" fill="#F6A623" sketch:type="MSShapeGroup"></path>
                <path d="M40.2634955,1.9533913 C38.4242162,1.01843478 36.6518198,0.517565217 34.9463063,0.517565217 C32.0703423,0.517565217 29.5287928,1.55269565 27.3216577,3.55617391 C25.1145225,5.89356522 24.010955,8.49808696 24.010955,11.4365217 C24.010955,14.8090435 24.8135495,17.4803478 26.4521802,19.4504348 C28.6593153,21.9213913 31.4683964,23.1234783 34.9128649,23.1234783 C35.8157838,23.1234783 36.8524685,22.8563478 38.0563604,22.322087 C37.956036,21.5874783 37.7553874,20.9530435 37.420973,20.352 C36.5514955,20.6191304 35.7154595,20.7526957 34.9128649,20.7526957 C32.4381982,20.7526957 30.3313874,19.8177391 28.6258739,18.0146087 C27.2547748,16.4452174 26.5859459,14.3749565 26.5859459,11.8038261 C26.5859459,9.33286957 27.421982,7.12904348 29.1609369,5.22573913 C30.7995676,3.68973913 32.7391712,2.92173913 34.9797477,2.92173913 C36.4177297,2.92173913 37.8557117,3.28904348 39.3271351,4.02365217 C39.4943423,3.82330435 39.694991,3.4893913 39.9290811,2.98852174 C40.1297297,2.55443478 40.2634955,2.22052174 40.2634955,1.9533913 L40.2634955,1.9533913 Z" id="Path" fill="url(#linearGradient-1)" sketch:type="MSShapeGroup"></path>
                <path d="M68.8893694,12.2713043 C68.8559279,4.62469565 65.2776937,0.751304348 58.1546667,0.651130435 C56.2150631,0.717913043 54.242018,1.21878261 52.1686486,2.18713043 C52.1686486,1.75304348 52.1686486,1.35234783 52.2355315,0.951652174 C52.0348829,0.818086957 51.667027,0.751304348 51.1654054,0.751304348 C50.9313153,0.751304348 50.5634595,0.784695652 50.0952793,0.818086957 C49.693982,4.35756522 49.4933333,7.86365217 49.4933333,11.4031304 C49.4933333,14.7422609 49.7274234,18.5154783 50.1956036,22.7227826 C50.3962523,22.7895652 50.7306667,22.8229565 51.1988468,22.8229565 C51.8342342,22.8229565 52.2355315,22.7561739 52.3692973,22.6226087 C52.1017658,19.4838261 52.0014414,15.4768696 52.0014414,10.5683478 C52.0014414,8.33113043 52.0348829,6.36104348 52.1017658,4.65808696 C54.2085766,3.52278261 56.2485045,2.95513043 58.1881081,2.95513043 C63.6725045,2.95513043 66.4147027,6.02713043 66.4147027,12.1711304 C66.4147027,14.8758261 65.8127568,16.9794783 64.6088649,18.5154783 C63.2712072,19.9846957 61.5322523,20.685913 59.4254414,20.685913 C58.1546667,20.685913 56.6498018,20.352 54.843964,19.6507826 C54.4092252,20.3186087 54.2085766,20.9864348 54.2085766,21.6542609 C54.8774054,22.0883478 55.7134414,22.4222609 56.7835676,22.6893913 C57.8536937,22.9231304 58.7231712,23.0233043 59.4588829,23.0233043 C62.3682883,23.0233043 64.7426306,22.0549565 66.5484685,20.0514783 C68.0867748,18.1481739 68.8559279,15.5436522 68.8893694,12.2713043 L68.8893694,12.2713043 Z" id="Path" fill="url(#linearGradient-2)" sketch:type="MSShapeGroup"></path>
                <path d="M93.3016216,22.7895652 L93.3016216,20.4855652 C93.3016216,16.8793043 92.8334414,13.2730435 91.8970811,9.70017391 C91.1279279,7.296 90.1915676,5.29252174 89.088,3.72313043 C87.5496937,1.61947826 85.8107387,0.550956522 83.8711351,0.550956522 C81.9315315,0.550956522 79.8916036,1.98678261 77.7513514,4.79165217 C76.4136937,6.5613913 75.3101261,8.53147826 74.3737658,10.701913 C72.802018,14.208 71.6984505,18.1815652 71.0630631,22.656 C71.6315676,22.8897391 72.3003964,22.989913 73.0695495,22.989913 L74.7416216,16.8793043 C79.8581622,17.5471304 83.0016577,17.8476522 84.1721081,17.8476522 C84.2724324,17.613913 84.3393153,17.28 84.3393153,16.8793043 C84.3393153,16.3450435 84.3058739,16.0445217 84.3058739,15.9443478 L75.4438919,14.6754783 C76.6812252,11.2695652 78.1192072,8.39791304 79.7578378,5.99373913 C81.363027,3.89008696 82.7341261,2.82156522 83.9045766,2.82156522 C85.2756757,2.82156522 86.5798919,3.92347826 87.8172252,6.12730435 C88.6198198,7.79686957 89.2552072,9.53321739 89.7233874,11.3029565 C90.5594234,14.7422609 90.9941622,18.5822609 91.0276036,22.7895652 C91.2282523,22.8563478 91.6964324,22.8897391 92.4321441,22.8897391 C92.5659099,22.8897391 92.8668829,22.8563478 93.3016216,22.7895652 L93.3016216,22.7895652 Z" id="Path" fill="url(#linearGradient-3)" sketch:type="MSShapeGroup"></path>
                <path d="M115.406414,2.32069565 C115.005117,1.85321739 114.470054,1.55269565 113.767784,1.35234783 C112.497009,3.15547826 111.226234,4.79165217 109.888577,6.26086957 C107.614559,8.76521739 105.708396,10.5015652 104.136649,11.4365217 C102.364252,8.89878261 100.658739,6.32765217 99.0201081,3.72313043 C97.6824505,1.71965217 96.9801802,0.684521739 96.8798559,0.550956522 C96.0438198,0.818086957 95.4753153,1.1186087 95.1409009,1.45252174 C95.5756396,2.88834783 96.7126486,5.0253913 98.5519279,7.83026087 C100.056793,10.1676522 101.327568,11.904 102.364252,13.0726957 C102.498018,17.9144348 102.76555,21.1867826 103.166847,22.9231304 C103.400937,22.9565217 103.768793,22.989913 104.270414,22.989913 C104.537946,22.989913 104.905802,22.9231304 105.373982,22.7561739 C105.373982,22.4222609 105.407423,22.1217391 105.407423,21.8546087 C105.407423,20.8194783 105.273658,18.1147826 105.006126,13.7071304 C106.811964,12.7053913 108.918775,10.9022609 111.393441,8.26434783 C113.734342,5.52626087 115.072,3.55617391 115.406414,2.32069565 L115.406414,2.32069565 Z" id="Path" fill-opacity="0.504987538" fill="#FFFFFF" sketch:type="MSShapeGroup"></path>
            </g>
        </g>
    </g>
</svg>